/videos/858e9d5c-2ec5-fcba-fad7-6a602d467369/hls1/main/0.ts

{"Protocol":0,"Id":"858e9d5c2ec5fcbafad76a602d467369","Path":"/data/media/tv/The Eminence in Shadow/Specials/The Eminence In Shadow - S00E01 - Kage-Jitsu! Operation 1 The Seven Shadows Want Their Operation To Succeed!.mkv","EncoderPath":null,"EncoderProtocol":null,"Type":0,"Container":"mkv,webm","Size":21435104,"Name":"The Eminence In Shadow - S00E01 - Kage-Jitsu! Operation 1 The Seven Shadows Want Their Operation To Succeed!","IsRemote":false,"ETag":"fd40c52ffe09c15d68fa40e134f8e9d9","RunTimeTicks":1211410048,"ReadAtNativeFramerate":false,"IgnoreDts":false,"IgnoreIndex":false,"GenPtsInput":false,"SupportsTranscoding":true,"SupportsDirectStream":true,"SupportsDirectPlay":true,"IsInfiniteStream":false,"RequiresOpening":false,"OpenToken":null,"RequiresClosing":false,"LiveStreamId":null,"BufferMs":null,"RequiresLooping":false,"SupportsProbing":true,"VideoType":0,"IsoType":null,"Video3DFormat":null,"MediaStreams":[{"Codec":"hevc","CodecTag":null,"Language":null,"ColorRange":null,"ColorSpace":"bt709","ColorTransfer":"bt709","ColorPrimaries":"bt709","DvVersionMajor":null,"DvVersionMinor":null,"DvProfile":null,"DvLevel":null,"RpuPresentFlag":null,"ElPresentFlag":null,"BlPresentFlag":null,"DvBlSignalCompatibilityId":null,"Comment":null,"TimeBase":"1/1000","CodecTimeBase":null,"Title":"Tenrai-Sensei | 20 CRF VerySlow","VideoRange":"SDR","VideoRangeType":"SDR","VideoDoViTitle":null,"LocalizedUndefined":null,"LocalizedDefault":null,"LocalizedForced":null,"LocalizedExternal":null,"DisplayTitle":"Tenrai-Sensei | 20 CRF VerySlow - 1080p - HEVC - SDR","NalLengthSize":null,"IsInterlaced":false,"IsAVC":null,"ChannelLayout":null,"BitRate":1415547,"BitDepth":10,"RefFrames":1,"PacketLength":null,"Channels":null,"SampleRate":null,"IsDefault":true,"IsForced":false,"Height":1080,"Width":1920,"AverageFrameRate":23.976025,"RealFrameRate":23.976025,"Profile":"Main 10","Type":1,"AspectRatio":"16:9","Index":0,"Score":null,"IsExternal":false,"DeliveryMethod":null,"DeliveryUrl":null,"IsExternalUrl":null,"IsTextSubtitleStream":false,"SupportsExternalStream":false,"Path":null,"PixelFormat":"yuv420p10le","Level":150,"IsAnamorphic":null},{"Codec":"opus","CodecTag":null,"Language":"jpn","ColorRange":null,"ColorSpace":null,"ColorTransfer":null,"ColorPrimaries":null,"DvVersionMajor":null,"DvVersionMinor":null,"DvProfile":null,"DvLevel":null,"RpuPresentFlag":null,"ElPresentFlag":null,"BlPresentFlag":null,"DvBlSignalCompatibilityId":null,"Comment":null,"TimeBase":"1/1000","CodecTimeBase":null,"Title":"","VideoRange":null,"VideoRangeType":null,"VideoDoViTitle":null,"LocalizedUndefined":null,"LocalizedDefault":null,"LocalizedForced":null,"LocalizedExternal":null,"DisplayTitle":"Japanese - OPUS - Stereo - Default","NalLengthSize":null,"IsInterlaced":false,"IsAVC":null,"ChannelLayout":"stereo","BitRate":191781,"BitDepth":null,"RefFrames":null,"PacketLength":null,"Channels":2,"SampleRate":48000,"IsDefault":true,"IsForced":false,"Height":null,"Width":null,"AverageFrameRate":null,"RealFrameRate":null,"Profile":null,"Type":0,"AspectRatio":null,"Index":1,"Score":null,"IsExternal":false,"DeliveryMethod":null,"DeliveryUrl":null,"IsExternalUrl":null,"IsTextSubtitleStream":false,"SupportsExternalStream":false,"Path":null,"PixelFormat":null,"Level":0,"IsAnamorphic":null},{"Codec":"ass","CodecTag":null,"Language":"eng","ColorRange":null,"ColorSpace":null,"ColorTransfer":null,"ColorPrimaries":null,"DvVersionMajor":null,"DvVersionMinor":null,"DvProfile":null,"DvLevel":null,"RpuPresentFlag":null,"ElPresentFlag":null,"BlPresentFlag":null,"DvBlSignalCompatibilityId":null,"Comment":null,"TimeBase":"1/1000","CodecTimeBase":null,"Title":"XerBlade","VideoRange":null,"VideoRangeType":null,"VideoDoViTitle":null,"LocalizedUndefined":"Undefined","LocalizedDefault":"Default","LocalizedForced":"Forced","LocalizedExternal":"External","DisplayTitle":"XerBlade - English - Default - ASS","NalLengthSize":null,"IsInterlaced":false,"IsAVC":null,"ChannelLayout":null,"BitRate":null,"BitDepth":null,"RefFrames":null,"PacketLength":null,"Channels":null,"SampleRate":null,"IsDefault":true,"IsForced":false,"Height":null,"Width":null,"AverageFrameRate":null,"RealFrameRate":null,"Profile":null,"Type":2,"AspectRatio":null,"Index":2,"Score":null,"IsExternal":false,"DeliveryMethod":null,"DeliveryUrl":null,"IsExternalUrl":null,"IsTextSubtitleStream":true,"SupportsExternalStream":true,"Path":null,"PixelFormat":null,"Level":0,"IsAnamorphic":null}],"MediaAttachments":[{"Codec":null,"CodecTag":"[0][0][0][0]","Comment":null,"Index":3,"FileName":"Lexend-Bold.ttf","MimeType":"font/ttf","DeliveryUrl":null},{"Codec":null,"CodecTag":"[0][0][0][0]","Comment":null,"Index":4,"FileName":"TsukuCOldMinPr6-R-Str.otf","MimeType":"font/otf","DeliveryUrl":null},{"Codec":null,"CodecTag":"[0][0][0][0]","Comment":null,"Index":5,"FileName":"Lexend-Medium.ttf","MimeType":"font/ttf","DeliveryUrl":null}],"Formats":[],"Bitrate":1607328,"Timestamp":null,"RequiredHttpHeaders":{},"TranscodingUrl":null,"TranscodingSubProtocol":null,"TranscodingContainer":null,"AnalyzeDurationMs":null,"DefaultAudioStreamIndex":null,"DefaultSubtitleStreamIndex":null}

/usr/lib/jellyfin-ffmpeg/ffmpeg -analyzeduration 200M -f matroska,webm -autorotate 0 -i file:"/data/media/tv/The Eminence in Shadow/Specials/The Eminence In Shadow - S00E01 - Kage-Jitsu! Operation 1 The Seven Shadows Want Their Operation To Succeed!.mkv" -map_metadata -1 -map_chapters -1 -threads 0 -map 0:0 -map 0:1 -map -0:s -codec:v:0 libx264 -preset veryfast -crf 23 -maxrate 5898113 -bufsize 11796226 -x264opts:0 subme=0:me_range=4:rc_lookahead=10:me=dia:no_chroma_me:8x8dct=0:partitions=none -force_key_frames:0 "expr:gte(t,0+n_forced*3)" -sc_threshold:v:0 0 -vf "setparams=color_primaries=bt709:color_trc=bt709:colorspace=bt709,scale=trunc(min(max(iw\,ih*a)\,min(1920\,1080*a))/2)*2:trunc(min(max(iw/a\,ih)\,min(1920/a\,1080))/2)*2,format=yuv420p" -codec:a:0 libfdk_aac -ac 2 -ab 256000 -copyts -avoid_negative_ts disabled -max_muxing_queue_size 2048 -f hls -max_delay 5000000 -hls_time 3 -hls_segment_type mpegts -start_number 0 -hls_segment_filename "/config/data/transcodes/d9b62ca3d65c8df378acecef54750144%d.ts" -hls_playlist_type vod -hls_list_size 0 -y "/config/data/transcodes/d9b62ca3d65c8df378acecef54750144.m3u8"


ffmpeg version 5.1.3-Jellyfin Copyright (c) 2000-2022 the FFmpeg developers
  built with gcc 11 (Ubuntu 11.4.0-1ubuntu1~22.04)
  configuration: --prefix=/usr/lib/jellyfin-ffmpeg --target-os=linux --extra-libs=-lfftw3f --extra-version=Jellyfin --disable-doc --disable-ffplay --disable-ptx-compression --disable-static --disable-libxcb --disable-sdl2 --disable-xlib --enable-lto --enable-gpl --enable-version3 --enable-shared --enable-gmp --enable-gnutls --enable-chromaprint --enable-libdrm --enable-libass --enable-libfreetype --enable-libfribidi --enable-libfontconfig --enable-libbluray --enable-libmp3lame --enable-libopus --enable-libtheora --enable-libvorbis --enable-libopenmpt --enable-libdav1d --enable-libwebp --enable-libvpx --enable-libx264 --enable-libx265 --enable-libzvbi --enable-libzimg --enable-libfdk-aac --toolchain=hardened --enable-cross-compile --arch=arm64 --cross-prefix=/usr/bin/aarch64-linux-gnu-
  libavutil      57. 28.100 / 57. 28.100
  libavcodec     59. 37.100 / 59. 37.100
  libavformat    59. 27.100 / 59. 27.100
  libavdevice    59.  7.100 / 59.  7.100
  libavfilter     8. 44.100 /  8. 44.100
  libswscale      6.  7.100 /  6.  7.100
  libswresample   4.  7.100 /  4.  7.100
  libpostproc    56.  6.100 / 56.  6.100
[matroska,webm @ 0x559e085540] Could not find codec parameters for stream 3 (Attachment: none): unknown codec
Consider increasing the value for the 'analyzeduration' (200000000) and 'probesize' (5000000) options
[matroska,webm @ 0x559e085540] Could not find codec parameters for stream 4 (Attachment: none): unknown codec
Consider increasing the value for the 'analyzeduration' (200000000) and 'probesize' (5000000) options
[matroska,webm @ 0x559e085540] Could not find codec parameters for stream 5 (Attachment: none): unknown codec
Consider increasing the value for the 'analyzeduration' (200000000) and 'probesize' (5000000) options
Input #0, matroska,webm, from 'file:/data/media/tv/The Eminence in Shadow/Specials/The Eminence In Shadow - S00E01 - Kage-Jitsu! Operation 1 The Seven Shadows Want Their Operation To Succeed!.mkv':
  Metadata:
    title           : 
    creation_time   : 2023-05-09T21:40:36.000000Z
    ENCODER         : Lavf58.76.100
  Duration: 00:02:01.14, start: -0.007000, bitrate: 1415 kb/s
  Stream #0:0: Video: hevc (Main 10), yuv420p10le(tv, bt709), 1920x1080 [SAR 1:1 DAR 16:9], 23.98 fps, 23.98 tbr, 1k tbn (default)
    Metadata:
      title           : Tenrai-Sensei | 20 CRF VerySlow
      BPS             : 1200179
      DURATION        : 00:02:01.121000000
      NUMBER_OF_FRAMES: 2904
      NUMBER_OF_BYTES : 18170866
      _STATISTICS_WRITING_APP: mkvmerge v73.0.0 ('25 or 6 to 4') 64-bit
      _STATISTICS_WRITING_DATE_UTC: 2023-05-09 21:40:36
      _STATISTICS_TAGS: BPS DURATION NUMBER_OF_FRAMES NUMBER_OF_BYTES
  Stream #0:1(jpn): Audio: opus, 48000 Hz, stereo, fltp (default)
    Metadata:
      title           : 
      BPS             : 191781
      DURATION        : 00:02:01.141000000
      NUMBER_OF_FRAMES: 6057
      NUMBER_OF_BYTES : 2904076
      _STATISTICS_WRITING_APP: mkvmerge v73.0.0 ('25 or 6 to 4') 64-bit
      _STATISTICS_WRITING_DATE_UTC: 2023-05-09 21:40:36
      _STATISTICS_TAGS: BPS DURATION NUMBER_OF_FRAMES NUMBER_OF_BYTES
  Stream #0:2(eng): Subtitle: ass (default)
    Metadata:
      title           : XerBlade
      BPS             : 173
      DURATION        : 00:01:57.610000000
      NUMBER_OF_FRAMES: 45
      NUMBER_OF_BYTES : 2547
      _STATISTICS_WRITING_APP: mkvmerge v73.0.0 ('25 or 6 to 4') 64-bit
      _STATISTICS_WRITING_DATE_UTC: 2023-05-09 21:40:36
      _STATISTICS_TAGS: BPS DURATION NUMBER_OF_FRAMES NUMBER_OF_BYTES
  Stream #0:3: Attachment: none
    Metadata:
      filename        : Lexend-Bold.ttf
      mimetype        : font/ttf
  Stream #0:4: Attachment: none
    Metadata:
      filename        : TsukuCOldMinPr6-R-Str.otf
      mimetype        : font/otf
  Stream #0:5: Attachment: none
    Metadata:
      filename        : Lexend-Medium.ttf
      mimetype        : font/ttf
Stream mapping:
  Stream #0:0 -> #0:0 (hevc (native) -> h264 (libx264))
  Stream #0:1 -> #0:1 (opus (native) -> aac (libfdk_aac))
Press [q] to stop, [?] for help
[libx264 @ 0x559e164d00] using SAR=1/1
[libx264 @ 0x559e164d00] using cpu capabilities: ARMv8 NEON
[libx264 @ 0x559e164d00] profile Main, level 4.0, 4:2:0, 8-bit
[libx264 @ 0x559e164d00] 264 - core 163 r3060 5db6aa6 - H.264/MPEG-4 AVC codec - Copyleft 2003-2021 - http://www.videolan.org/x264.html - options: cabac=1 ref=1 deblock=1:0:0 analyse=0x1:0 me=dia subme=0 psy=1 psy_rd=1.00:0.00 mixed_ref=0 me_range=4 chroma_me=0 trellis=0 8x8dct=0 cqm=0 deadzone=21,11 fast_pskip=1 chroma_qp_offset=0 threads=6 lookahead_threads=1 sliced_threads=0 nr=0 decimate=1 interlaced=0 bluray_compat=0 constrained_intra=0 bframes=3 b_pyramid=2 b_adapt=1 b_bias=0 direct=1 weightb=1 open_gop=0 weightp=1 keyint=250 keyint_min=23 scenecut=0 intra_refresh=0 rc_lookahead=10 rc=crf mbtree=1 crf=23.0 qcomp=0.60 qpmin=0 qpmax=69 qpstep=4 vbv_maxrate=5898 vbv_bufsize=11796 crf_max=0.0 nal_hrd=none filler=0 ip_ratio=1.40 aq=1:1.00
Output #0, hls, to '/config/data/transcodes/d9b62ca3d65c8df378acecef54750144.m3u8':
  Metadata:
    encoder         : Lavf59.27.100
  Stream #0:0: Video: h264, yuv420p(tv, bt709, progressive), 1920x1080 [SAR 1:1 DAR 16:9], q=2-31, 23.98 fps, 90k tbn (default)
    Metadata:
      encoder         : Lavc59.37.100 libx264
    Side data:
      cpb: bitrate max/min/avg: 5898000/0/0 buffer size: 11796000 vbv_delay: N/A
  Stream #0:1: Audio: aac, 48000 Hz, stereo, s16, 256 kb/s (default)
    Metadata:
      encoder         : Lavc59.37.100 libfdk_aac
frame=    1 fps=0.0 q=0.0 size=N/A time=00:00:00.00 bitrate=N/A speed=   0x    
frame=   13 fps=0.0 q=0.0 size=N/A time=00:00:00.64 bitrate=N/A speed=0.907x    
frame=   23 fps= 17 q=28.0 size=N/A time=00:00:00.96 bitrate=N/A speed=0.706x    
frame=   33 fps= 18 q=28.0 size=N/A time=00:00:01.34 bitrate=N/A speed=0.723x    
frame=   45 fps= 19 q=28.0 size=N/A time=00:00:01.92 bitrate=N/A speed=0.795x    
frame=   56 fps= 19 q=28.0 size=N/A time=00:00:02.15 bitrate=N/A speed=0.721x    
frame=   67 fps= 19 q=28.0 size=N/A time=00:00:02.94 bitrate=N/A speed=0.832x    
frame=   80 fps= 19 q=28.0 size=N/A time=00:00:03.26 bitrate=N/A speed=0.786x    
frame=   92 fps= 19 q=28.0 size=N/A time=00:00:03.75 bitrate=N/A speed=0.795x    
[hls @ 0x559e1a6f30] Opening '/config/data/transcodes/d9b62ca3d65c8df378acecef547501440.ts' for writing
frame=  101 fps= 19 q=28.0 size=N/A time=00:00:04.43 bitrate=N/A speed=0.848x    
frame=  113 fps= 20 q=28.0 size=N/A time=00:00:04.71 bitrate=N/A speed=0.822x    
frame=  126 fps= 20 q=28.0 size=N/A time=00:00:05.07 bitrate=N/A speed=0.812x    
frame=  138 fps= 20 q=28.0 size=N/A time=00:00:05.71 bitrate=N/A speed=0.844x    
frame=  152 fps= 21 q=28.0 size=N/A time=00:00:06.18 bitrate=N/A speed=0.845x    
[hls @ 0x559e1a6f30] Opening '/config/data/transcodes/d9b62ca3d65c8df378acecef547501441.ts' for writing
frame=  168 fps= 21 q=28.0 size=N/A time=00:00:06.82 bitrate=N/A speed=0.868x    
frame=  178 fps= 21 q=28.0 size=N/A time=00:00:07.46 bitrate=N/A speed=0.89x    
frame=  186 fps= 21 q=28.0 size=N/A time=00:00:07.78 bitrate=N/A speed=0.862x    
frame=  194 fps= 20 q=28.0 size=N/A time=00:00:08.10 bitrate=N/A speed=0.85x    
frame=  201 fps= 20 q=28.0 size=N/A time=00:00:08.34 bitrate=N/A speed=0.828x    
frame=  209 fps= 20 q=28.0 size=N/A time=00:00:08.66 bitrate=N/A speed=0.813x    
frame=  217 fps= 19 q=28.0 size=N/A time=00:00:08.98 bitrate=N/A speed=0.805x    
frame=  228 fps= 19 q=28.0 size=N/A time=00:00:09.45 bitrate=N/A speed=0.805x    
[hls @ 0x559e1a6f30] Opening '/config/data/transcodes/d9b62ca3d65c8df378acecef547501442.ts' for writing
frame=  238 fps= 19 q=28.0 size=N/A time=00:00:09.94 bitrate=N/A speed=0.811x    
frame=  249 fps= 19 q=28.0 size=N/A time=00:00:10.28 bitrate=N/A speed=0.803x    
frame=  263 fps= 20 q=28.0 size=N/A time=00:00:10.90 bitrate=N/A speed=0.819x    
frame=  275 fps= 20 q=28.0 size=N/A time=00:00:11.37 bitrate=N/A speed=0.822x    
frame=  288 fps= 20 q=28.0 size=N/A time=00:00:11.86 bitrate=N/A speed=0.824x    
frame=  300 fps= 20 q=28.0 size=N/A time=00:00:12.50 bitrate=N/A speed=0.836x    
[hls @ 0x559e1a6f30] Opening '/config/data/transcodes/d9b62ca3d65c8df378acecef547501443.ts' for writing
frame=  313 fps= 20 q=28.0 size=N/A time=00:00:12.97 bitrate=N/A speed=0.84x    
frame=  328 fps= 21 q=28.0 size=N/A time=00:00:13.61 bitrate=N/A speed=0.853x    
frame=  343 fps= 21 q=28.0 size=N/A time=00:00:14.25 bitrate=N/A speed=0.866x    
frame=  359 fps= 21 q=28.0 size=N/A time=00:00:14.84 bitrate=N/A speed=0.875x    
frame=  373 fps= 21 q=28.0 size=N/A time=00:00:15.48 bitrate=N/A speed=0.886x    
[hls @ 0x559e1a6f30] Opening '/config/data/transcodes/d9b62ca3d65c8df378acecef547501444.ts' for writing
frame=  381 fps= 21 q=28.0 size=N/A time=00:00:15.82 bitrate=N/A speed=0.876x    
frame=  395 fps= 21 q=30.0 size=N/A time=00:00:16.44 bitrate=N/A speed=0.884x    
frame=  411 fps= 21 q=28.0 size=N/A time=00:00:17.08 bitrate=N/A speed=0.894x    
frame=  424 fps= 22 q=28.0 size=N/A time=00:00:17.57 bitrate=N/A speed=0.895x    
frame=  437 fps= 22 q=28.0 size=N/A time=00:00:18.04 bitrate=N/A speed=0.895x    
[hls @ 0x559e1a6f30] Opening '/config/data/transcodes/d9b62ca3d65c8df378acecef547501445.ts' for writing
frame=  453 fps= 22 q=28.0 size=N/A time=00:00:18.85 bitrate=N/A speed=0.913x    
frame=  465 fps= 22 q=28.0 size=N/A time=00:00:19.49 bitrate=N/A speed=0.921x    
frame=  479 fps= 22 q=28.0 size=N/A time=00:00:19.88 bitrate=N/A speed=0.917x    
frame=  492 fps= 22 q=28.0 size=N/A time=00:00:20.35 bitrate=N/A speed=0.917x    
frame=  506 fps= 22 q=28.0 size=N/A time=00:00:21.16 bitrate=N/A speed=0.933x    
frame=  520 fps= 22 q=25.0 size=N/A time=00:00:21.63 bitrate=N/A speed=0.932x    
[hls @ 0x559e1a6f30] Opening '/config/data/transcodes/d9b62ca3d65c8df378acecef547501446.ts' for writing
frame=  533 fps= 22 q=28.0 size=N/A time=00:00:22.14 bitrate=N/A speed=0.934x    
frame=  549 fps= 23 q=28.0 size=N/A time=00:00:22.76 bitrate=N/A speed=0.939x    
frame=  562 fps= 23 q=28.0 size=N/A time=00:00:23.42 bitrate=N/A speed=0.946x    
frame=  578 fps= 23 q=28.0 size=N/A time=00:00:24.04 bitrate=N/A speed=0.951x    
frame=  592 fps= 23 q=25.0 size=N/A time=00:00:24.53 bitrate=N/A speed=0.952x    
[hls @ 0x559e1a6f30] Opening '/config/data/transcodes/d9b62ca3d65c8df378acecef547501447.ts' for writing
frame=  606 fps= 23 q=28.0 size=N/A time=00:00:25.23 bitrate=N/A speed=0.959x    
frame=  623 fps= 23 q=28.0 size=N/A time=00:00:25.98 bitrate=N/A speed=0.969x    
frame=  636 fps= 23 q=28.0 size=N/A time=00:00:26.47 bitrate=N/A speed=0.969x    
frame=  651 fps= 23 q=28.0 size=N/A time=00:00:27.11 bitrate=N/A speed=0.974x    
frame=  665 fps= 23 q=28.0 size=N/A time=00:00:27.75 bitrate=N/A speed=0.979x    
[hls @ 0x559e1a6f30] Opening '/config/data/transcodes/d9b62ca3d65c8df378acecef547501448.ts' for writing
frame=  679 fps= 23 q=28.0 size=N/A time=00:00:28.22 bitrate=N/A speed=0.977x    
frame=  696 fps= 24 q=28.0 size=N/A time=00:00:28.86 bitrate=N/A speed=0.978x    
frame=  708 fps= 24 q=28.0 size=N/A time=00:00:29.35 bitrate=N/A speed=0.978x    
frame=  722 fps= 24 q=28.0 size=N/A time=00:00:30.14 bitrate=N/A speed=0.986x    
frame=  734 fps= 24 q=28.0 size=N/A time=00:00:30.50 bitrate=N/A speed=0.982x    
[hls @ 0x559e1a6f30] Opening '/config/data/transcodes/d9b62ca3d65c8df378acecef547501449.ts' for writing
frame=  749 fps= 24 q=28.0 size=N/A time=00:00:31.23 bitrate=N/A speed=0.988x    
frame=  765 fps= 24 q=28.0 size=N/A time=00:00:31.82 bitrate=N/A speed=0.99x    
frame=  778 fps= 24 q=28.0 size=N/A time=00:00:32.34 bitrate=N/A speed=0.99x    
frame=  792 fps= 24 q=28.0 size=N/A time=00:00:32.96 bitrate=N/A speed=0.994x    
frame=  806 fps= 24 q=28.0 size=N/A time=00:00:33.60 bitrate=N/A speed=0.998x    
[hls @ 0x559e1a6f30] Opening '/config/data/transcodes/d9b62ca3d65c8df378acecef5475014410.ts' for writing
frame=  819 fps= 24 q=28.0 size=N/A time=00:00:34.06 bitrate=N/A speed=0.994x    
frame=  831 fps= 24 q=28.0 size=N/A time=00:00:34.66 bitrate=N/A speed=0.997x    
frame=  845 fps= 24 q=28.0 size=N/A time=00:00:35.22 bitrate=N/A speed=0.999x    
frame=  858 fps= 24 q=28.0 size=N/A time=00:00:35.73 bitrate=N/A speed=0.999x    
frame=  872 fps= 24 q=28.0 size=N/A time=00:00:36.45 bitrate=N/A speed=   1x    
[hls @ 0x559e1a6f30] Opening '/config/data/transcodes/d9b62ca3d65c8df378acecef5475014411.ts' for writing
frame=  885 fps= 24 q=28.0 size=N/A time=00:00:36.80 bitrate=N/A speed=0.998x    
frame=  900 fps= 24 q=28.0 size=N/A time=00:00:37.56 bitrate=N/A speed=   1x    
frame=  915 fps= 24 q=28.0 size=N/A time=00:00:38.20 bitrate=N/A speed=1.01x    
frame=  931 fps= 24 q=28.0 size=N/A time=00:00:38.69 bitrate=N/A speed=1.01x    
frame=  946 fps= 24 q=28.0 size=N/A time=00:00:39.33 bitrate=N/A speed=1.01x    
[hls @ 0x559e1a6f30] Opening '/config/data/transcodes/d9b62ca3d65c8df378acecef5475014412.ts' for writing
frame=  959 fps= 24 q=28.0 size=N/A time=00:00:40.04 bitrate=N/A speed=1.02x    
frame=  974 fps= 24 q=28.0 size=N/A time=00:00:40.44 bitrate=N/A speed=1.01x    
frame=  989 fps= 24 q=28.0 size=N/A time=00:00:41.21 bitrate=N/A speed=1.02x    
frame= 1001 fps= 24 q=28.0 size=N/A time=00:00:41.81 bitrate=N/A speed=1.02x    
frame= 1017 fps= 25 q=28.0 size=N/A time=00:00:42.34 bitrate=N/A speed=1.02x    
[hls @ 0x559e1a6f30] Opening '/config/data/transcodes/d9b62ca3d65c8df378acecef5475014413.ts' for writing
frame= 1032 fps= 25 q=28.0 size=N/A time=00:00:42.98 bitrate=N/A speed=1.02x    
frame= 1047 fps= 25 q=28.0 size=N/A time=00:00:43.62 bitrate=N/A speed=1.03x    
frame= 1063 fps= 25 q=28.0 size=N/A time=00:00:44.26 bitrate=N/A speed=1.03x    
frame= 1076 fps= 25 q=28.0 size=N/A time=00:00:44.75 bitrate=N/A speed=1.03x    
frame= 1091 fps= 25 q=28.0 size=N/A time=00:00:45.50 bitrate=N/A speed=1.03x    
[hls @ 0x559e1a6f30] Opening '/config/data/transcodes/d9b62ca3d65c8df378acecef5475014414.ts' for writing
frame= 1107 fps= 25 q=28.0 size=N/A time=00:00:46.08 bitrate=N/A speed=1.03x    
frame= 1119 fps= 25 q=28.0 size=N/A time=00:00:46.54 bitrate=N/A speed=1.03x    
frame= 1134 fps= 25 q=28.0 size=N/A time=00:00:47.18 bitrate=N/A speed=1.04x    
frame= 1150 fps= 25 q=28.0 size=N/A time=00:00:47.82 bitrate=N/A speed=1.04x    
frame= 1165 fps= 25 q=28.0 size=N/A time=00:00:48.49 bitrate=N/A speed=1.04x    
[hls @ 0x559e1a6f30] Opening '/config/data/transcodes/d9b62ca3d65c8df378acecef5475014415.ts' for writing
frame= 1180 fps= 25 q=28.0 size=N/A time=00:00:49.42 bitrate=N/A speed=1.05x    
frame= 1196 fps= 25 q=28.0 size=N/A time=00:00:49.74 bitrate=N/A speed=1.04x    
frame= 1211 fps= 25 q=28.0 size=N/A time=00:00:50.56 bitrate=N/A speed=1.05x    
frame= 1228 fps= 25 q=28.0 size=N/A time=00:00:51.09 bitrate=N/A speed=1.05x    
frame= 1241 fps= 25 q=28.0 size=N/A time=00:00:51.90 bitrate=N/A speed=1.05x    
[hls @ 0x559e1a6f30] Opening '/config/data/transcodes/d9b62ca3d65c8df378acecef5475014416.ts' for writing
frame= 1255 fps= 25 q=28.0 size=N/A time=00:00:52.22 bitrate=N/A speed=1.05x    
frame= 1267 fps= 25 q=28.0 size=N/A time=00:00:52.86 bitrate=N/A speed=1.05x    
frame= 1283 fps= 25 q=28.0 size=N/A time=00:00:53.50 bitrate=N/A speed=1.05x    
frame= 1300 fps= 25 q=28.0 size=N/A time=00:00:54.14 bitrate=N/A speed=1.05x    
[hls @ 0x559e1a6f30] Opening '/config/data/transcodes/d9b62ca3d65c8df378acecef5475014417.ts' for writing
frame= 1317 fps= 25 q=28.0 size=N/A time=00:00:54.93 bitrate=N/A speed=1.06x    
frame= 1333 fps= 25 q=28.0 size=N/A time=00:00:55.57 bitrate=N/A speed=1.06x    
frame= 1349 fps= 25 q=28.0 size=N/A time=00:00:56.10 bitrate=N/A speed=1.06x    
frame= 1364 fps= 25 q=28.0 size=N/A time=00:00:56.74 bitrate=N/A speed=1.06x    
frame= 1379 fps= 25 q=28.0 size=N/A time=00:00:57.55 bitrate=N/A speed=1.06x    
[hls @ 0x559e1a6f30] Opening '/config/data/transcodes/d9b62ca3d65c8df378acecef5475014418.ts' for writing
frame= 1394 fps= 26 q=28.0 size=N/A time=00:00:58.02 bitrate=N/A speed=1.06x    
frame= 1406 fps= 25 q=28.0 size=N/A time=00:00:58.64 bitrate=N/A speed=1.06x    
frame= 1424 fps= 26 q=28.0 size=N/A time=00:00:59.30 bitrate=N/A speed=1.06x    
frame= 1440 fps= 26 q=28.0 size=N/A time=00:00:59.94 bitrate=N/A speed=1.07x    
frame= 1455 fps= 26 q=25.0 size=N/A time=00:01:00.58 bitrate=N/A speed=1.07x    
[hls @ 0x559e1a6f30] Opening '/config/data/transcodes/d9b62ca3d65c8df378acecef5475014419.ts' for writing
frame= 1470 fps= 26 q=28.0 size=N/A time=00:01:01.29 bitrate=N/A speed=1.07x    
frame= 1485 fps= 26 q=28.0 size=N/A time=00:01:01.93 bitrate=N/A speed=1.07x    
frame= 1501 fps= 26 q=28.0 size=N/A time=00:01:02.52 bitrate=N/A speed=1.07x    
frame= 1514 fps= 26 q=28.0 size=N/A time=00:01:03.16 bitrate=N/A speed=1.07x    
frame= 1529 fps= 26 q=28.0 size=N/A time=00:01:03.65 bitrate=N/A speed=1.07x    
[hls @ 0x559e1a6f30] Opening '/config/data/transcodes/d9b62ca3d65c8df378acecef5475014420.ts' for writing
frame= 1542 fps= 26 q=28.0 size=N/A time=00:01:04.29 bitrate=N/A speed=1.07x    
frame= 1555 fps= 26 q=28.0 size=N/A time=00:01:04.78 bitrate=N/A speed=1.07x    
frame= 1568 fps= 26 q=28.0 size=N/A time=00:01:05.40 bitrate=N/A speed=1.07x    
frame= 1583 fps= 26 q=28.0 size=N/A time=00:01:05.89 bitrate=N/A speed=1.07x    
frame= 1597 fps= 26 q=28.0 size=N/A time=00:01:06.62 bitrate=N/A speed=1.07x    
[hls @ 0x559e1a6f30] Opening '/config/data/transcodes/d9b62ca3d65c8df378acecef5475014421.ts' for writing
frame= 1611 fps= 26 q=28.0 size=N/A time=00:01:07.13 bitrate=N/A speed=1.07x    
frame= 1627 fps= 26 q=28.0 size=N/A time=00:01:07.79 bitrate=N/A speed=1.07x    
frame= 1644 fps= 26 q=28.0 size=N/A time=00:01:08.41 bitrate=N/A speed=1.07x    
frame= 1657 fps= 26 q=28.0 size=N/A time=00:01:09.07 bitrate=N/A speed=1.08x    
frame= 1670 fps= 26 q=28.0 size=N/A time=00:01:09.78 bitrate=N/A speed=1.08x    
[hls @ 0x559e1a6f30] Opening '/config/data/transcodes/d9b62ca3d65c8df378acecef5475014422.ts' for writing
frame= 1684 fps= 26 q=28.0 size=N/A time=00:01:10.16 bitrate=N/A speed=1.08x    
frame= 1698 fps= 26 q=28.0 size=N/A time=00:01:10.67 bitrate=N/A speed=1.08x    
frame= 1714 fps= 26 q=28.0 size=N/A time=00:01:11.38 bitrate=N/A speed=1.08x    
frame= 1725 fps= 26 q=28.0 size=N/A time=00:01:11.85 bitrate=N/A speed=1.08x    
frame= 1738 fps= 26 q=28.0 size=N/A time=00:01:12.49 bitrate=N/A speed=1.08x    
[hls @ 0x559e1a6f30] Opening '/config/data/transcodes/d9b62ca3d65c8df378acecef5475014423.ts' for writing
frame= 1752 fps= 26 q=28.0 size=N/A time=00:01:13.00 bitrate=N/A speed=1.08x    
frame= 1769 fps= 26 q=28.0 size=N/A time=00:01:13.77 bitrate=N/A speed=1.08x    
frame= 1784 fps= 26 q=28.0 size=N/A time=00:01:14.41 bitrate=N/A speed=1.08x    
frame= 1797 fps= 26 q=28.0 size=N/A time=00:01:14.92 bitrate=N/A speed=1.08x    
frame= 1812 fps= 26 q=28.0 size=N/A time=00:01:15.54 bitrate=N/A speed=1.08x    
[hls @ 0x559e1a6f30] Opening '/config/data/transcodes/d9b62ca3d65c8df378acecef5475014424.ts' for writing
frame= 1825 fps= 26 q=28.0 size=N/A time=00:01:16.22 bitrate=N/A speed=1.08x    
frame= 1837 fps= 26 q=28.0 size=N/A time=00:01:16.54 bitrate=N/A speed=1.07x    
frame= 1848 fps= 26 q=28.0 size=N/A time=00:01:17.01 bitrate=N/A speed=1.07x    
frame= 1860 fps= 26 q=28.0 size=N/A time=00:01:17.65 bitrate=N/A speed=1.07x    
frame= 1871 fps= 26 q=28.0 size=N/A time=00:01:17.97 bitrate=N/A speed=1.07x    
frame= 1883 fps= 26 q=28.0 size=N/A time=00:01:18.61 bitrate=N/A speed=1.07x    
[hls @ 0x559e1a6f30] Opening '/config/data/transcodes/d9b62ca3d65c8df378acecef5475014425.ts' for writing
frame= 1893 fps= 26 q=28.0 size=N/A time=00:01:18.93 bitrate=N/A speed=1.07x    
frame= 1903 fps= 26 q=28.0 size=N/A time=00:01:19.42 bitrate=N/A speed=1.07x    
frame= 1914 fps= 26 q=28.0 size=N/A time=00:01:19.82 bitrate=N/A speed=1.06x    
frame= 1928 fps= 26 q=28.0 size=N/A time=00:01:20.38 bitrate=N/A speed=1.06x    
frame= 1942 fps= 26 q=28.0 size=N/A time=00:01:20.98 bitrate=N/A speed=1.07x    
frame= 1958 fps= 26 q=28.0 size=N/A time=00:01:21.62 bitrate=N/A speed=1.07x    
[hls @ 0x559e1a6f30] Opening '/config/data/transcodes/d9b62ca3d65c8df378acecef5475014426.ts' for writing
frame= 1971 fps= 26 q=28.0 size=N/A time=00:01:22.04 bitrate=N/A speed=1.06x    
frame= 1986 fps= 26 q=28.0 size=N/A time=00:01:22.83 bitrate=N/A speed=1.07x    
frame= 1999 fps= 26 q=28.0 size=N/A time=00:01:23.30 bitrate=N/A speed=1.07x    
frame= 2013 fps= 26 q=28.0 size=N/A time=00:01:23.81 bitrate=N/A speed=1.07x    
frame= 2030 fps= 26 q=25.0 size=N/A time=00:01:24.58 bitrate=N/A speed=1.07x    
[hls @ 0x559e1a6f30] Opening '/config/data/transcodes/d9b62ca3d65c8df378acecef5475014427.ts' for writing
frame= 2042 fps= 26 q=28.0 size=N/A time=00:01:25.14 bitrate=N/A speed=1.07x    
frame= 2057 fps= 26 q=28.0 size=N/A time=00:01:25.73 bitrate=N/A speed=1.07x    
frame= 2071 fps= 26 q=28.0 size=N/A time=00:01:26.35 bitrate=N/A speed=1.07x    
frame= 2084 fps= 26 q=28.0 size=N/A time=00:01:26.84 bitrate=N/A speed=1.07x    
frame= 2100 fps= 26 q=28.0 size=N/A time=00:01:27.59 bitrate=N/A speed=1.07x    
[hls @ 0x559e1a6f30] Opening '/config/data/transcodes/d9b62ca3d65c8df378acecef5475014428.ts' for writing
frame= 2114 fps= 26 q=28.0 size=N/A time=00:01:28.06 bitrate=N/A speed=1.07x    
frame= 2128 fps= 26 q=28.0 size=N/A time=00:01:28.70 bitrate=N/A speed=1.07x    
frame= 2141 fps= 26 q=28.0 size=N/A time=00:01:29.19 bitrate=N/A speed=1.07x    
frame= 2155 fps= 26 q=28.0 size=N/A time=00:01:29.83 bitrate=N/A speed=1.07x    
frame= 2170 fps= 26 q=28.0 size=N/A time=00:01:30.47 bitrate=N/A speed=1.07x    
[hls @ 0x559e1a6f30] Opening '/config/data/transcodes/d9b62ca3d65c8df378acecef5475014429.ts' for writing
frame= 2185 fps= 26 q=28.0 size=N/A time=00:01:31.11 bitrate=N/A speed=1.07x    
frame= 2199 fps= 26 q=28.0 size=N/A time=00:01:31.75 bitrate=N/A speed=1.07x    
frame= 2211 fps= 26 q=28.0 size=N/A time=00:01:32.13 bitrate=N/A speed=1.07x    
frame= 2226 fps= 26 q=28.0 size=N/A time=00:01:32.77 bitrate=N/A speed=1.07x    
frame= 2237 fps= 26 q=28.0 size=N/A time=00:01:33.24 bitrate=N/A speed=1.07x    
[hls @ 0x559e1a6f30] Opening '/config/data/transcodes/d9b62ca3d65c8df378acecef5475014430.ts' for writing
frame= 2251 fps= 26 q=28.0 size=N/A time=00:01:33.76 bitrate=N/A speed=1.07x    

[q] command received. Exiting.

[hls @ 0x559e1a6f30] Opening '/config/data/transcodes/d9b62ca3d65c8df378acecef5475014431.ts' for writing
frame= 2260 fps= 26 q=-1.0 Lsize=N/A time=00:01:34.25 bitrate=N/A speed=1.07x    
video:10536kB audio:2960kB subtitle:0kB other streams:0kB global headers:0kB muxing overhead: unknown
[libx264 @ 0x559e164d00] frame I:32    Avg QP:17.76  size:173352
[libx264 @ 0x559e164d00] frame P:578   Avg QP:18.31  size:  7607
[libx264 @ 0x559e164d00] frame B:1650  Avg QP:20.96  size:   512
[libx264 @ 0x559e164d00] consecutive B-frames:  1.8%  1.5%  3.5% 93.3%
[libx264 @ 0x559e164d00] mb I  I16..4: 46.2%  0.0% 53.8%
[libx264 @ 0x559e164d00] mb P  I16..4:  4.4%  0.0%  0.0%  P16..4:  7.2%  0.0%  0.0%  0.0%  0.0%    skip:88.4%
[libx264 @ 0x559e164d00] mb B  I16..4:  0.2%  0.0%  0.0%  B16..8:  0.8%  0.0%  0.0%  direct: 0.8%  skip:98.2%  L0:38.5% L1:51.4% BI:10.1%
[libx264 @ 0x559e164d00] coded y,uvDC,uvAC intra: 41.6% 46.6% 25.1% inter: 0.6% 1.6% 0.1%
[libx264 @ 0x559e164d00] i16 v,h,dc,p: 45% 38%  8%  9%
[libx264 @ 0x559e164d00] i4 v,h,dc,ddl,ddr,vr,hd,vl,hu: 33% 24% 16%  4%  7%  4%  3%  4%  5%
[libx264 @ 0x559e164d00] i8c dc,h,v,p: 46% 26% 23%  6%
[libx264 @ 0x559e164d00] Weighted P-Frames: Y:1.0% UV:1.0%
[libx264 @ 0x559e164d00] kb/s:915.63